<mxfile host="app.diagrams.net" modified="2022-06-23T14:59:33.321Z" agent="5.0 (Windows NT 10.0; Win64; x64) AppleWebKit/537.36 (KHTML, like Gecko) Chrome/102.0.0.0 Safari/537.36" etag="LGSQM2Kb3uCRLiouhqAl" version="20.0.2" type="github">
  <diagram id="C5RBs43oDa-KdzZeNtuy" name="Page-1">
    <mxGraphModel dx="1221" dy="644" grid="1" gridSize="10" guides="1" tooltips="1" connect="1" arrows="1" fold="1" page="1" pageScale="1" pageWidth="827" pageHeight="1169" math="0" shadow="0">
      <root>
        <mxCell id="WIyWlLk6GJQsqaUBKTNV-0" />
        <mxCell id="WIyWlLk6GJQsqaUBKTNV-1" parent="WIyWlLk6GJQsqaUBKTNV-0" />
        <mxCell id="2WO6uv_OmHzfUVvAE4A4-0" value="" style="edgeStyle=orthogonalEdgeStyle;rounded=0;orthogonalLoop=1;jettySize=auto;html=1;" parent="WIyWlLk6GJQsqaUBKTNV-1" source="xjIx5pmZvu1iZp6TSP_3-0" target="xjIx5pmZvu1iZp6TSP_3-1" edge="1">
          <mxGeometry relative="1" as="geometry" />
        </mxCell>
        <mxCell id="xjIx5pmZvu1iZp6TSP_3-0" value="&lt;font style=&quot;font-size: 13px;&quot;&gt;&lt;b style=&quot;&quot;&gt;PEGASUS &lt;/b&gt;&lt;br&gt;(project in HelixALM)&lt;br&gt;&lt;br&gt;&lt;div style=&quot;text-align: left;&quot;&gt;&lt;span style=&quot;background-color: initial;&quot;&gt;&lt;span style=&quot;white-space: pre;&quot;&gt;	&lt;/span&gt;&lt;b&gt;The subjects for validation:&lt;/b&gt;&lt;/span&gt;&lt;/div&gt;&lt;div style=&quot;text-align: left;&quot;&gt;&lt;/div&gt;&lt;/font&gt;&lt;ul style=&quot;font-size: 13px;&quot;&gt;&lt;li style=&quot;text-align: left;&quot;&gt;&lt;font style=&quot;font-size: 13px;&quot;&gt;Requirements Workflow and User Access Privileges.&lt;/font&gt;&lt;/li&gt;&lt;li style=&quot;text-align: left;&quot;&gt;&lt;font style=&quot;font-size: 13px;&quot;&gt;Export Software Requirements Document based on the template.&lt;/font&gt;&lt;/li&gt;&lt;li style=&quot;text-align: left;&quot;&gt;&lt;font style=&quot;font-size: 13px;&quot;&gt;&lt;font style=&quot;font-size: 13px;&quot;&gt;RTM Report&amp;nbsp;relationships in a spreadsheet/html format between the Requirements, Test Methods including&amp;nbsp;&lt;/font&gt;(DTP, VAR/VER and&lt;br&gt;Design Output) values.&lt;/font&gt;&lt;/li&gt;&lt;/ul&gt;" style="rounded=1;whiteSpace=wrap;html=1;" parent="WIyWlLk6GJQsqaUBKTNV-1" vertex="1">
          <mxGeometry x="211" y="10" width="419" height="170" as="geometry" />
        </mxCell>
        <mxCell id="rFrP117XFuvYWXzCR-oH-1" value="" style="edgeStyle=orthogonalEdgeStyle;rounded=0;orthogonalLoop=1;jettySize=auto;html=1;" edge="1" parent="WIyWlLk6GJQsqaUBKTNV-1" source="xjIx5pmZvu1iZp6TSP_3-1" target="rFrP117XFuvYWXzCR-oH-0">
          <mxGeometry relative="1" as="geometry" />
        </mxCell>
        <mxCell id="xjIx5pmZvu1iZp6TSP_3-1" value="&lt;font style=&quot;font-size: 13px;&quot;&gt;&lt;b&gt;HelixALM_Validation &lt;/b&gt;&lt;br&gt;(duplicate of PEGASUS in HelixALM)&lt;br&gt;&lt;br&gt;&lt;/font&gt;&lt;div style=&quot;text-align: left; font-size: 13px;&quot;&gt;&lt;font style=&quot;font-size: 13px;&quot;&gt;&lt;span style=&quot;&quot;&gt;	&lt;/span&gt;&lt;b&gt;Contents&lt;/b&gt;:&lt;br&gt;&lt;/font&gt;&lt;/div&gt;&lt;ul style=&quot;font-size: 13px;&quot;&gt;&lt;li style=&quot;text-align: left;&quot;&gt;&lt;font style=&quot;font-size: 13px;&quot;&gt;Identical &quot;&lt;i&gt;Requirements Workflow&lt;/i&gt;&quot; and &quot;&lt;i&gt;User Access Privileges&lt;/i&gt;&quot;.&lt;/font&gt;&lt;/li&gt;&lt;li style=&quot;text-align: left;&quot;&gt;&lt;font style=&quot;font-size: 13px;&quot;&gt;Identical template &quot;&lt;i&gt;SOFTWARE REQUIREMENTS TEMPLATE&lt;/i&gt;&quot;&lt;/font&gt;&lt;/li&gt;&lt;li style=&quot;text-align: left;&quot;&gt;&lt;font style=&quot;font-size: 13px;&quot;&gt;Identical RTM Report &quot;&lt;i&gt;Product Requirements Trace Matrix Report(RTM-00667, rev 003)&quot;&lt;/i&gt;&lt;/font&gt;&lt;/li&gt;&lt;li style=&quot;text-align: left;&quot;&gt;&lt;font style=&quot;font-size: 13px;&quot;&gt;New Requirements for the subjects of validation&lt;/font&gt;&lt;/li&gt;&lt;li style=&quot;text-align: left;&quot;&gt;&lt;font style=&quot;font-size: 13px;&quot;&gt;TMs(protocols) for these requirements.&lt;/font&gt;&lt;/li&gt;&lt;li style=&quot;text-align: left;&quot;&gt;&lt;font style=&quot;font-size: 13px;&quot;&gt;TRs(result of validation).&lt;/font&gt;&lt;/li&gt;&lt;/ul&gt;" style="rounded=1;whiteSpace=wrap;html=1;" parent="WIyWlLk6GJQsqaUBKTNV-1" vertex="1">
          <mxGeometry x="143.5" y="210" width="554" height="200" as="geometry" />
        </mxCell>
        <mxCell id="rFrP117XFuvYWXzCR-oH-0" value="&lt;font style=&quot;font-size: 13px;&quot;&gt;&lt;b&gt;&lt;br&gt;Delivery Output Documentation&lt;/b&gt;&lt;br&gt;&lt;br&gt;&lt;/font&gt;&lt;ul style=&quot;font-size: 13px;&quot;&gt;&lt;li style=&quot;text-align: left;&quot;&gt;&lt;font style=&quot;font-size: 13px;&quot;&gt;PLN-09582 Helix ALM 2019 4 0 Validation.docx&lt;br&gt;&lt;/font&gt;&lt;/li&gt;&lt;li style=&quot;text-align: left;&quot;&gt;&lt;font style=&quot;font-size: 13px;&quot;&gt;Test Methods(protocols): VAP-03908_002.docx&lt;/font&gt;&lt;/li&gt;&lt;li style=&quot;text-align: left;&quot;&gt;&lt;font style=&quot;font-size: 13px;&quot;&gt;Test Runs(results): VAR-05322_002.docx&lt;/font&gt;&lt;/li&gt;&lt;/ul&gt;&lt;div style=&quot;text-align: left; font-size: 13px;&quot;&gt;&lt;b&gt;&lt;font style=&quot;font-size: 13px;&quot;&gt;Attachments:&lt;/font&gt;&lt;/b&gt;&lt;/div&gt;&lt;ul style=&quot;font-size: 13px;&quot;&gt;&lt;li style=&quot;text-align: left;&quot;&gt;&lt;font style=&quot;font-size: 13px;&quot;&gt;&lt;span style=&quot;background-color: initial;&quot;&gt;&lt;span style=&quot;font-family: Arial, sans-serif;&quot;&gt;Exported&lt;i&gt;: &quot;Template&amp;nbsp;&lt;/i&gt;&lt;/span&gt;&lt;/span&gt;&lt;i style=&quot;background-color: initial;&quot;&gt;&lt;span style=&quot;mso-bidi-font-size:11.0pt;font-family:&amp;quot;Arial&amp;quot;,sans-serif&quot;&gt;SW Requirements Specification_v1.0.docx&quot;&lt;/span&gt;&lt;/i&gt;&lt;/font&gt;&lt;/li&gt;&lt;li style=&quot;text-align: left;&quot;&gt;&lt;font style=&quot;font-size: 13px;&quot;&gt;&lt;span style=&quot;background-color: initial;&quot;&gt;&lt;span style=&quot;font-family: Arial, sans-serif;&quot;&gt;Output Report(HTML)&lt;i&gt;: &quot;Pegasus&amp;nbsp;&lt;/i&gt;&lt;/span&gt;&lt;/span&gt;&lt;i style=&quot;background-color: initial;&quot;&gt;&lt;span style=&quot;mso-bidi-font-size:11.0pt;font-family:&amp;quot;Arial&amp;quot;,sans-serif&quot;&gt;Requirements Trace Matrix (RTM-00667).docx&quot;&lt;/span&gt;&lt;/i&gt;&lt;/font&gt;&lt;/li&gt;&lt;li style=&quot;text-align: left;&quot;&gt;&lt;font style=&quot;font-size: 13px;&quot;&gt;&lt;i style=&quot;background-color: initial;&quot;&gt;&lt;span style=&quot;mso-bidi-font-size:11.0pt;font-family:&amp;quot;Arial&amp;quot;,sans-serif&quot;&gt;&quot;Perforce&amp;nbsp;&lt;/span&gt;&lt;/i&gt;&lt;i style=&quot;background-color: initial;&quot;&gt;&lt;span style=&quot;mso-bidi-font-size:11.0pt;font-family:&amp;quot;Arial&amp;quot;,sans-serif&quot;&gt;Validation Package.zip&quot;&lt;/span&gt;&lt;/i&gt;&lt;/font&gt;&lt;/li&gt;&lt;/ul&gt;" style="rounded=1;whiteSpace=wrap;html=1;" vertex="1" parent="WIyWlLk6GJQsqaUBKTNV-1">
          <mxGeometry x="158.25" y="440" width="524.5" height="190" as="geometry" />
        </mxCell>
      </root>
    </mxGraphModel>
  </diagram>
</mxfile>
